<?xml version="1.0" encoding="utf-8" ?>
<svg baseProfile="full" height="400px" version="1.1" width="400px" xmlns="http://www.w3.org/2000/svg" xmlns:ev="http://www.w3.org/2001/xml-events" xmlns:xlink="http://www.w3.org/1999/xlink">
  <defs/>
  <rect fill="rgb(209,139,71)" height="50" width="50" x="0" y="0"/>
  <rect fill="rgb(255,206,158)" height="100" width="50" x="0" y="50"/>
  <rect fill="rgb(209,139,71)" height="150" width="50" x="0" y="100"/>
  <rect fill="rgb(255,206,158)" height="200" width="50" x="0" y="150"/>
  <rect fill="rgb(209,139,71)" height="250" width="50" x="0" y="200"/>
  <rect fill="rgb(255,206,158)" height="300" width="50" x="0" y="250"/>
  <rect fill="rgb(209,139,71)" height="350" width="50" x="0" y="300"/>
  <rect fill="rgb(255,206,158)" height="400" width="50" x="0" y="350"/>
  <rect fill="rgb(255,206,158)" height="50" width="100" x="50" y="0"/>
  <rect fill="rgb(209,139,71)" height="100" width="100" x="50" y="50"/>
  <rect fill="rgb(255,206,158)" height="150" width="100" x="50" y="100"/>
  <rect fill="rgb(209,139,71)" height="200" width="100" x="50" y="150"/>
  <rect fill="rgb(255,206,158)" height="250" width="100" x="50" y="200"/>
  <rect fill="rgb(209,139,71)" height="300" width="100" x="50" y="250"/>
  <rect fill="rgb(255,206,158)" height="350" width="100" x="50" y="300"/>
  <rect fill="rgb(209,139,71)" height="400" width="100" x="50" y="350"/>
  <rect fill="rgb(209,139,71)" height="50" width="150" x="100" y="0"/>
  <rect fill="rgb(255,206,158)" height="100" width="150" x="100" y="50"/>
  <rect fill="rgb(209,139,71)" height="150" width="150" x="100" y="100"/>
  <rect fill="rgb(255,206,158)" height="200" width="150" x="100" y="150"/>
  <rect fill="rgb(209,139,71)" height="250" width="150" x="100" y="200"/>
  <rect fill="rgb(255,206,158)" height="300" width="150" x="100" y="250"/>
  <rect fill="rgb(209,139,71)" height="350" width="150" x="100" y="300"/>
  <rect fill="rgb(255,206,158)" height="400" width="150" x="100" y="350"/>
  <rect fill="rgb(255,206,158)" height="50" width="200" x="150" y="0"/>
  <rect fill="rgb(209,139,71)" height="100" width="200" x="150" y="50"/>
  <rect fill="rgb(255,206,158)" height="150" width="200" x="150" y="100"/>
  <rect fill="rgb(209,139,71)" height="200" width="200" x="150" y="150"/>
  <rect fill="rgb(255,206,158)" height="250" width="200" x="150" y="200"/>
  <rect fill="rgb(209,139,71)" height="300" width="200" x="150" y="250"/>
  <rect fill="rgb(255,206,158)" height="350" width="200" x="150" y="300"/>
  <rect fill="rgb(209,139,71)" height="400" width="200" x="150" y="350"/>
  <rect fill="rgb(209,139,71)" height="50" width="250" x="200" y="0"/>
  <rect fill="rgb(255,206,158)" height="100" width="250" x="200" y="50"/>
  <rect fill="rgb(209,139,71)" height="150" width="250" x="200" y="100"/>
  <rect fill="rgb(255,206,158)" height="200" width="250" x="200" y="150"/>
  <rect fill="rgb(209,139,71)" height="250" width="250" x="200" y="200"/>
  <rect fill="rgb(255,206,158)" height="300" width="250" x="200" y="250"/>
  <rect fill="rgb(209,139,71)" height="350" width="250" x="200" y="300"/>
  <rect fill="rgb(255,206,158)" height="400" width="250" x="200" y="350"/>
  <rect fill="rgb(255,206,158)" height="50" width="300" x="250" y="0"/>
  <rect fill="rgb(209,139,71)" height="100" width="300" x="250" y="50"/>
  <rect fill="rgb(255,206,158)" height="150" width="300" x="250" y="100"/>
  <rect fill="rgb(209,139,71)" height="200" width="300" x="250" y="150"/>
  <rect fill="rgb(255,206,158)" height="250" width="300" x="250" y="200"/>
  <rect fill="rgb(209,139,71)" height="300" width="300" x="250" y="250"/>
  <rect fill="rgb(255,206,158)" height="350" width="300" x="250" y="300"/>
  <rect fill="rgb(209,139,71)" height="400" width="300" x="250" y="350"/>
  <rect fill="rgb(209,139,71)" height="50" width="350" x="300" y="0"/>
  <rect fill="rgb(255,206,158)" height="100" width="350" x="300" y="50"/>
  <rect fill="rgb(209,139,71)" height="150" width="350" x="300" y="100"/>
  <rect fill="rgb(255,206,158)" height="200" width="350" x="300" y="150"/>
  <rect fill="rgb(209,139,71)" height="250" width="350" x="300" y="200"/>
  <rect fill="rgb(255,206,158)" height="300" width="350" x="300" y="250"/>
  <rect fill="rgb(209,139,71)" height="350" width="350" x="300" y="300"/>
  <rect fill="rgb(255,206,158)" height="400" width="350" x="300" y="350"/>
  <rect fill="rgb(255,206,158)" height="50" width="400" x="350" y="0"/>
  <rect fill="rgb(209,139,71)" height="100" width="400" x="350" y="50"/>
  <rect fill="rgb(255,206,158)" height="150" width="400" x="350" y="100"/>
  <rect fill="rgb(209,139,71)" height="200" width="400" x="350" y="150"/>
  <rect fill="rgb(255,206,158)" height="250" width="400" x="350" y="200"/>
  <rect fill="rgb(209,139,71)" height="300" width="400" x="350" y="250"/>
  <rect fill="rgb(255,206,158)" height="350" width="400" x="350" y="300"/>
  <rect fill="rgb(209,139,71)" height="400" width="400" x="350" y="350"/>
</svg>
