<?xml version="1.0" encoding="utf-8" ?>
<svg baseProfile="full" height="640px" version="1.1" width="640px" xmlns="http://www.w3.org/2000/svg" xmlns:ev="http://www.w3.org/2001/xml-events" xmlns:xlink="http://www.w3.org/1999/xlink">
  <defs/>
  <rect fill="rgb(209,139,71)" height="80" width="80" x="0" y="0"/>
  <rect fill="rgb(255,206,158)" height="160" width="80" x="0" y="80"/>
  <rect fill="rgb(209,139,71)" height="240" width="80" x="0" y="160"/>
  <rect fill="rgb(255,206,158)" height="320" width="80" x="0" y="240"/>
  <rect fill="rgb(209,139,71)" height="400" width="80" x="0" y="320"/>
  <rect fill="rgb(255,206,158)" height="480" width="80" x="0" y="400"/>
  <rect fill="rgb(209,139,71)" height="560" width="80" x="0" y="480"/>
  <rect fill="rgb(255,206,158)" height="640" width="80" x="0" y="560"/>
  <rect fill="rgb(255,206,158)" height="80" width="160" x="80" y="0"/>
  <rect fill="rgb(209,139,71)" height="160" width="160" x="80" y="80"/>
  <rect fill="rgb(255,206,158)" height="240" width="160" x="80" y="160"/>
  <rect fill="rgb(209,139,71)" height="320" width="160" x="80" y="240"/>
  <rect fill="rgb(255,206,158)" height="400" width="160" x="80" y="320"/>
  <rect fill="rgb(209,139,71)" height="480" width="160" x="80" y="400"/>
  <rect fill="rgb(255,206,158)" height="560" width="160" x="80" y="480"/>
  <rect fill="rgb(209,139,71)" height="640" width="160" x="80" y="560"/>
  <rect fill="rgb(209,139,71)" height="80" width="240" x="160" y="0"/>
  <rect fill="rgb(255,206,158)" height="160" width="240" x="160" y="80"/>
  <rect fill="rgb(209,139,71)" height="240" width="240" x="160" y="160"/>
  <rect fill="rgb(255,206,158)" height="320" width="240" x="160" y="240"/>
  <rect fill="rgb(209,139,71)" height="400" width="240" x="160" y="320"/>
  <rect fill="rgb(255,206,158)" height="480" width="240" x="160" y="400"/>
  <rect fill="rgb(209,139,71)" height="560" width="240" x="160" y="480"/>
  <rect fill="rgb(255,206,158)" height="640" width="240" x="160" y="560"/>
  <rect fill="rgb(255,206,158)" height="80" width="320" x="240" y="0"/>
  <rect fill="rgb(209,139,71)" height="160" width="320" x="240" y="80"/>
  <rect fill="rgb(255,206,158)" height="240" width="320" x="240" y="160"/>
  <rect fill="rgb(209,139,71)" height="320" width="320" x="240" y="240"/>
  <rect fill="rgb(255,206,158)" height="400" width="320" x="240" y="320"/>
  <rect fill="rgb(209,139,71)" height="480" width="320" x="240" y="400"/>
  <rect fill="rgb(255,206,158)" height="560" width="320" x="240" y="480"/>
  <rect fill="rgb(209,139,71)" height="640" width="320" x="240" y="560"/>
  <rect fill="rgb(209,139,71)" height="80" width="400" x="320" y="0"/>
  <rect fill="rgb(255,206,158)" height="160" width="400" x="320" y="80"/>
  <rect fill="rgb(209,139,71)" height="240" width="400" x="320" y="160"/>
  <rect fill="rgb(255,206,158)" height="320" width="400" x="320" y="240"/>
  <rect fill="rgb(209,139,71)" height="400" width="400" x="320" y="320"/>
  <rect fill="rgb(255,206,158)" height="480" width="400" x="320" y="400"/>
  <rect fill="rgb(209,139,71)" height="560" width="400" x="320" y="480"/>
  <rect fill="rgb(255,206,158)" height="640" width="400" x="320" y="560"/>
  <rect fill="rgb(255,206,158)" height="80" width="480" x="400" y="0"/>
  <rect fill="rgb(209,139,71)" height="160" width="480" x="400" y="80"/>
  <rect fill="rgb(255,206,158)" height="240" width="480" x="400" y="160"/>
  <rect fill="rgb(209,139,71)" height="320" width="480" x="400" y="240"/>
  <rect fill="rgb(255,206,158)" height="400" width="480" x="400" y="320"/>
  <rect fill="rgb(209,139,71)" height="480" width="480" x="400" y="400"/>
  <rect fill="rgb(255,206,158)" height="560" width="480" x="400" y="480"/>
  <rect fill="rgb(209,139,71)" height="640" width="480" x="400" y="560"/>
  <rect fill="rgb(209,139,71)" height="80" width="560" x="480" y="0"/>
  <rect fill="rgb(255,206,158)" height="160" width="560" x="480" y="80"/>
  <rect fill="rgb(209,139,71)" height="240" width="560" x="480" y="160"/>
  <rect fill="rgb(255,206,158)" height="320" width="560" x="480" y="240"/>
  <rect fill="rgb(209,139,71)" height="400" width="560" x="480" y="320"/>
  <rect fill="rgb(255,206,158)" height="480" width="560" x="480" y="400"/>
  <rect fill="rgb(209,139,71)" height="560" width="560" x="480" y="480"/>
  <rect fill="rgb(255,206,158)" height="640" width="560" x="480" y="560"/>
  <rect fill="rgb(255,206,158)" height="80" width="640" x="560" y="0"/>
  <rect fill="rgb(209,139,71)" height="160" width="640" x="560" y="80"/>
  <rect fill="rgb(255,206,158)" height="240" width="640" x="560" y="160"/>
  <rect fill="rgb(209,139,71)" height="320" width="640" x="560" y="240"/>
  <rect fill="rgb(255,206,158)" height="400" width="640" x="560" y="320"/>
  <rect fill="rgb(209,139,71)" height="480" width="640" x="560" y="400"/>
  <rect fill="rgb(255,206,158)" height="560" width="640" x="560" y="480"/>
  <rect fill="rgb(209,139,71)" height="640" width="640" x="560" y="560"/>
</svg>
